<?xml version="1.0"?>
<svg xmlns="http://www.w3.org/2000/svg" xmlns:xlink="http://www.w3.org/1999/xlink" version="1.1" id="Capa_1" x="0px" y="0px" viewBox="0 0 512.002 512.002" style="enable-background:new 0 0 512.002 512.002;" xml:space="preserve" class=""><g transform="matrix(0.931599 0 0 0.931599 17.5106 17.5106)"><g>
	<g>
		<g>
			<path d="M286,69.273V56.622c0-13.036-8.361-24.152-20-28.28V10c0-5.523-4.477-10-10-10s-10,4.477-10,10v18.342     c-11.639,4.128-20,15.244-20,28.28v12.651c-79.481,14.21-140,83.844-140,167.349c0,93.738,76.262,169.999,170,169.999     s170-76.261,170-169.999C426,153.118,365.482,83.483,286,69.273z M395.307,181.009c-6.256-5.011-13.409-9.708-21.433-14.022     c-10.369-5.575-21.839-10.323-34.129-14.196c-3.868-12.212-8.603-23.621-14.157-33.951c-4.348-8.087-9.081-15.292-14.128-21.587     C349.583,112.477,380.042,142.907,395.307,181.009z M404.635,226.622h-52.778c-0.562-17.428-2.582-34.381-5.961-50.376     C377.089,188.319,399.107,206.347,404.635,226.622z M266,226.622V160.78c20.476,0.722,39.979,3.633,57.572,8.27     c4.638,17.593,7.549,37.096,8.27,57.572H266z M331.843,246.622c-0.722,20.476-3.633,39.979-8.269,57.572     c-17.594,4.637-37.097,7.548-57.573,8.27v-65.842H331.843z M316.362,146.689c-15.98-3.359-32.928-5.367-50.361-5.924V87.988     C286.268,93.514,304.289,115.516,316.362,146.689z M200.542,97.253c-5.047,6.295-9.781,13.499-14.129,21.587     c-5.554,10.33-10.289,21.739-14.157,33.951c-12.289,3.873-23.76,8.621-34.128,14.196c-8.024,4.314-15.177,9.011-21.433,14.022     C131.961,142.907,162.42,112.476,200.542,97.253z M166.105,176.246c-3.379,15.995-5.399,32.949-5.961,50.376h-52.778     C112.894,206.347,134.911,188.319,166.105,176.246z M160.144,246.622L160.144,246.622c0.561,17.427,2.582,34.381,5.961,50.376     c-31.194-12.073-53.211-30.101-58.739-50.376H160.144z M116.695,292.236c6.257,5.011,13.409,9.708,21.433,14.022     c10.369,5.575,21.839,10.323,34.129,14.196c3.868,12.211,8.603,23.621,14.157,33.95c4.348,8.087,9.081,15.292,14.128,21.586     C162.42,360.767,131.961,330.336,116.695,292.236z M246.002,385.255c-20.267-5.526-38.288-27.527-50.361-58.7     c15.98,3.359,32.928,5.367,50.361,5.924V385.255z M246.002,312.464c-20.476-0.722-39.979-3.633-57.572-8.27     c-4.637-17.593-7.549-37.096-8.27-57.572h65.842V312.464z M246.002,226.622h-65.842c0.722-20.476,3.633-39.979,8.27-57.572     c17.592-4.637,37.096-7.548,57.572-8.27V226.622z M246.002,140.765c-17.433,0.558-34.38,2.565-50.361,5.924     c12.073-31.173,30.093-53.175,50.361-58.701V140.765z M246.002,66.924V56.622c0-5.514,4.486-10,10-10c5.514,0,10,4.486,10,10     v10.302c-3.31-0.193-6.643-0.302-10-0.302S249.312,66.731,246.002,66.924z M266,385.255v-52.776     c17.433-0.558,34.38-2.565,50.361-5.924C304.289,357.728,286.268,379.729,266,385.255z M311.461,375.99     c5.048-6.295,9.78-13.499,14.128-21.586c5.554-10.33,10.289-21.739,14.157-33.95c12.289-3.873,23.76-8.621,34.129-14.196     c8.024-4.314,15.176-9.011,21.433-14.022C380.042,330.336,349.583,360.767,311.461,375.99z M345.896,296.998     c3.379-15.995,5.399-32.948,5.961-50.376h52.778C399.107,266.897,377.091,284.925,345.896,296.998z" data-original="#000000" class="active-path" fill="#000000"/>
			<path d="M256,483.035c5.523,0,10-4.477,10-10V432c0-5.523-4.477-10-10-10s-10,4.477-10,10v41.035     C246,478.558,250.477,483.035,256,483.035z" data-original="#000000" class="active-path" fill="#000000"/>
			<path d="M256.003,491.766c-5.523,0-10,4.477-10,10v0.236c0,5.523,4.477,10,10,10s10-4.477,10-10v-0.236     C266.003,496.243,261.526,491.766,256.003,491.766z" data-original="#000000" class="active-path" fill="#000000"/>
			<path d="M63,236.622c0-5.523-4.477-10-10-10H10c-5.523,0-10,4.477-10,10c0,5.523,4.477,10,10,10h43     C58.523,246.622,63,242.145,63,236.622z" data-original="#000000" class="active-path" fill="#000000"/>
			<path d="M90.183,388.296l-30.406,30.406c-3.905,3.905-3.905,10.237,0,14.143c1.953,1.953,4.512,2.929,7.071,2.929     c2.559,0,5.119-0.976,7.071-2.929l30.406-30.406c3.905-3.905,3.905-10.237,0-14.143     C100.42,384.391,94.089,384.391,90.183,388.296z" data-original="#000000" class="active-path" fill="#000000"/>
			<path d="M429.951,72.673c2.559,0,5.119-0.976,7.071-2.929l15.203-15.203c3.905-3.905,3.905-10.237,0-14.143     c-3.905-3.905-10.237-3.905-14.142,0L422.88,55.601c-3.905,3.905-3.905,10.237,0,14.143     C424.831,71.697,427.391,72.673,429.951,72.673z" data-original="#000000" class="active-path" fill="#000000"/>
			<path d="M74.98,69.744c1.953,1.953,4.512,2.929,7.071,2.929c2.559,0,5.119-0.976,7.071-2.929c3.905-3.905,3.905-10.237,0-14.143     L73.919,40.398c-3.905-3.905-10.237-3.905-14.143,0c-3.905,3.905-3.905,10.237,0,14.143L74.98,69.744z" data-original="#000000" class="active-path" fill="#000000"/>
			<path d="M47.268,127.656l9.309,5.375c1.575,0.909,3.294,1.342,4.991,1.342c3.456,0,6.817-1.794,8.669-5.001     c2.762-4.783,1.123-10.899-3.66-13.661l-9.309-5.375c-4.783-2.762-10.899-1.123-13.661,3.66     C40.846,118.778,42.485,124.895,47.268,127.656z" data-original="#000000" class="active-path" fill="#000000"/>
			<path d="M148.75,422.384c-4.782-2.76-10.899-1.122-13.66,3.661l-5.375,9.31c-2.761,4.783-1.122,10.899,3.661,13.66     c1.575,0.909,3.293,1.341,4.99,1.341c3.456,0,6.818-1.794,8.67-5.003l5.375-9.311     C155.172,431.262,153.534,425.146,148.75,422.384z" data-original="#000000" class="active-path" fill="#000000"/>
			<path d="M464.734,345.587l-9.31-5.375c-4.782-2.76-10.899-1.122-13.66,3.66c-2.762,4.783-1.123,10.899,3.66,13.66l9.31,5.375     c1.575,0.909,3.294,1.342,4.991,1.342c3.456,0,6.817-1.794,8.669-5.002C471.156,354.464,469.518,348.348,464.734,345.587z" data-original="#000000" class="active-path" fill="#000000"/>
			<path d="M363.252,50.86c1.575,0.909,3.293,1.341,4.99,1.341c3.456,0,6.818-1.794,8.67-5.002l5.375-9.311     c2.761-4.783,1.122-10.899-3.661-13.66c-4.781-2.76-10.898-1.122-13.66,3.661l-5.375,9.311     C356.83,41.982,358.469,48.099,363.252,50.86z" data-original="#000000" class="active-path" fill="#000000"/>
			<path d="M421.818,388.296c-3.905-3.905-10.237-3.905-14.143,0c-3.905,3.905-3.905,10.237,0,14.143l30.406,30.406     c1.953,1.953,4.512,2.929,7.071,2.929c2.559,0,5.119-0.976,7.071-2.929c3.905-3.905,3.905-10.237,0-14.143L421.818,388.296z" data-original="#000000" class="active-path" fill="#000000"/>
			<path d="M502.002,226.622H459c-5.523,0-10,4.477-10,10c0,5.523,4.477,10,10,10h43.001c5.523,0,10-4.477,10-10     C512.003,231.099,507.524,226.622,502.002,226.622z" data-original="#000000" class="active-path" fill="#000000"/>
			<path d="M439.281,145.583c0,5.508,4.493,10,10.001,10s10-4.492,10-10s-4.492-10.001-10-10.001     C443.774,135.582,439.281,140.075,439.281,145.583z" data-original="#000000" class="active-path" fill="#000000"/>
			<circle cx="164.961" cy="43.34" r="10" data-original="#000000" class="active-path" fill="#000000"/>
			<circle cx="62.721" cy="327.66" r="10" data-original="#000000" class="active-path" fill="#000000"/>
			<circle cx="347.041" cy="429.9" r="10" data-original="#000000" class="active-path" fill="#000000"/>
		</g>
	</g>
</g></g> </svg>
