<?xml version="1.0" encoding="iso-8859-1"?>
<!-- Generator: Adobe Illustrator 19.0.0, SVG Export Plug-In . SVG Version: 6.00 Build 0)  -->
<svg version="1.1" id="Capa_1" xmlns="http://www.w3.org/2000/svg" xmlns:xlink="http://www.w3.org/1999/xlink" x="0px" y="0px"
	 viewBox="0 0 511.999 511.999" style="enable-background:new 0 0 511.999 511.999;" xml:space="preserve">
<g>
	<g>
		<path d="M432.025,318.374c-16.227-16.227-35.862-21.708-56.792-15.843c-18.318,5.133-32.695,17.542-39.636,24.481l-30.308,30.308
			L200.11,462.498c-21.707,21.708-70.472,25.38-98.468-2.617c-27.998-27.997-24.325-76.761-2.617-98.468l7.468-7.468l1.865,1.866
			c9.109,9.11,21.28,14.127,34.269,14.127c12.879,0,25.534-4.852,35.635-13.662L356.668,200.67
			c19.391-2.131,37.718-9.865,52.754-22.181c1.833,1.497,4.073,2.245,6.314,2.245c2.56,0,5.118-0.976,7.071-2.929
			c3.657-3.658,3.889-9.443,0.695-13.371c32.409-39.497,30.183-98.087-6.686-134.957C397.807,10.469,372.532,0,345.648,0
			c-23.541,0-45.848,8.027-63.794,22.788c-3.929-3.188-9.708-2.955-13.364,0.701c-3.662,3.662-3.89,9.458-0.684,13.386
			c-12.316,15.036-20.05,33.362-22.181,52.753L90.019,268.034c-18.442,21.145-18.242,51.196,0.465,69.903l1.866,1.866l-7.468,7.467
			c-14.743,14.743-23.229,37.069-23.283,61.253c-0.057,25.48,9.142,48.742,25.9,65.5c16.708,16.707,39.878,25.9,65.267,25.9
			c0.078,0,0.157,0,0.235,0c24.183-0.054,46.508-8.541,61.251-23.283l105.18-105.179l30.308-30.308
			c4.474-4.474,16.438-15.316,30.889-19.365c13.947-3.907,26.129-0.398,37.254,10.727c21.964,21.963,10.76,45.388-1.897,60.741
			l-6.407-6.407c-3.906-3.905-10.236-3.905-14.142,0l-68.192,68.192c-3.905,3.905-3.905,10.237,0,14.142l6.738,6.738l-19.007,19.006
			c-3.905,3.905-3.905,10.237,0,14.143c1.953,1.953,4.512,2.929,7.071,2.929c2.56,0,5.118-0.976,7.071-2.929l19.006-19.006
			l6.737,6.737c1.875,1.875,4.419,2.929,7.071,2.929c2.652,0,5.196-1.054,7.071-2.929l68.192-68.193
			c3.905-3.905,3.905-10.237,0-14.143l-7.05-7.05c6.717-7.989,14.489-19.407,18.128-32.699
			C453.911,354.124,448.293,334.641,432.025,318.374z M345.648,20c21.542,0,41.794,8.389,57.027,23.621
			c29.048,29.049,31.238,74.914,6.617,106.527l-113.15-113.15C310.239,25.989,327.479,20,345.648,20z M282.001,51.141
			l113.154,113.154c-10.16,7.902-22.069,13.275-34.723,15.633l-94.065-94.066C268.725,73.211,274.099,61.301,282.001,51.141z
			 M105.092,281.181l152.948-175.36l82.435,82.435l-20.835,18.172l-24.487-24.488c-3.905-3.904-10.236-3.905-14.142,0
			c-3.906,3.905-3.906,10.237-0.001,14.142l23.522,23.523L165.115,341.204c-6.458,5.632-14.444,8.734-22.488,8.734
			c-5.409,0-13.292-1.435-20.126-8.27l-17.874-17.874C93.45,312.619,93.65,294.298,105.092,281.181z M361.932,475.589
			l-13.475-13.476l54.05-54.05l13.475,13.475L361.932,475.589z"/>
	</g>
</g>
<g>
	<g>
		<path d="M273.381,160.173l-0.179-0.179c-3.906-3.905-10.236-3.905-14.142,0c-3.905,3.905-3.905,10.237,0,14.142l0.179,0.179
			c1.953,1.953,4.512,2.929,7.071,2.929c2.559,0,5.118-0.977,7.071-2.929C277.286,170.41,277.286,164.078,273.381,160.173z"/>
	</g>
</g>
<g>
</g>
<g>
</g>
<g>
</g>
<g>
</g>
<g>
</g>
<g>
</g>
<g>
</g>
<g>
</g>
<g>
</g>
<g>
</g>
<g>
</g>
<g>
</g>
<g>
</g>
<g>
</g>
<g>
</g>
</svg>
